<?xml version="1.0" encoding="utf-8" standalone="no"?>
<!DOCTYPE svg PUBLIC "-//W3C//DTD SVG 1.1//EN"
  "http://www.w3.org/Graphics/SVG/1.1/DTD/svg11.dtd">
<svg xmlns:xlink="http://www.w3.org/1999/xlink" width="125.28pt" height="125.28pt" viewBox="0 0 125.28 125.28" xmlns="http://www.w3.org/2000/svg" version="1.1">
 <metadata>
  <rdf:RDF xmlns:dc="http://purl.org/dc/elements/1.1/" xmlns:cc="http://creativecommons.org/ns#" xmlns:rdf="http://www.w3.org/1999/02/22-rdf-syntax-ns#">
   <cc:Work>
    <dc:type rdf:resource="http://purl.org/dc/dcmitype/StillImage"/>
    <dc:date>2025-07-24T08:26:14.901261</dc:date>
    <dc:format>image/svg+xml</dc:format>
    <dc:creator>
     <cc:Agent>
      <dc:title>Matplotlib v3.6.3, https://matplotlib.org/</dc:title>
     </cc:Agent>
    </dc:creator>
   </cc:Work>
  </rdf:RDF>
 </metadata>
 <defs>
  <style type="text/css">*{stroke-linejoin: round; stroke-linecap: butt}</style>
 </defs>
 <g id="figure_1">
  <g id="patch_1">
   <path d="M 0 125.28 
L 125.28 125.28 
L 125.28 0 
L 0 0 
L 0 125.28 
z
" style="fill: none"/>
  </g>
  <g id="axes_1">
   <g id="patch_2">
    <path d="M 62.64 113.04 
C 76.006236 113.04 88.826825 107.729538 98.278182 98.278182 
C 107.729538 88.826825 113.04 76.006236 113.04 62.64 
C 113.04 49.273764 107.729538 36.453175 98.278182 27.001818 
C 88.826825 17.550462 76.006236 12.24 62.64 12.24 
C 49.273764 12.24 36.453175 17.550462 27.001818 27.001818 
C 17.550462 36.453175 12.24 49.273764 12.24 62.64 
C 12.24 76.006236 17.550462 88.826825 27.001818 98.278182 
C 36.453175 107.729538 49.273764 113.04 62.64 113.04 
z
" clip-path="url(#pcab0275d25)" style="fill: #2e3436; stroke: #2e3436; stroke-linejoin: miter"/>
   </g>
   <g id="patch_3">
    <path d="M 113.04 62.64 
C 113.04 49.278215 107.72639 36.450027 98.278182 27.001818 
C 88.829973 17.55361 76.001785 12.24 62.64 12.24 
C 49.278215 12.24 36.450027 17.55361 27.001818 27.001818 
C 17.55361 36.450027 12.24 49.278215 12.24 62.64 
L 62.64 62.64 
L 113.04 62.64 
z
" clip-path="url(#pcab0275d25)" style="fill: #48a9a6; stroke: #48a9a6; stroke-linejoin: miter"/>
   </g>
   <g id="patch_4">
    <path d="M 62.64 47.52 
C 65.313247 47.52 67.877365 46.457908 69.767636 44.567636 
C 71.657908 42.677365 72.72 40.113247 72.72 37.44 
C 72.72 34.766753 71.657908 32.202635 69.767636 30.312364 
C 67.877365 28.422092 65.313247 27.36 62.64 27.36 
C 59.966753 27.36 57.402635 28.422092 55.512364 30.312364 
C 53.622092 32.202635 52.56 34.766753 52.56 37.44 
C 52.56 40.113247 53.622092 42.677365 55.512364 44.567636 
C 57.402635 46.457908 59.966753 47.52 62.64 47.52 
z
" clip-path="url(#pcab0275d25)" style="fill: #ffffff; stroke: #2e3436; stroke-width: 2; stroke-linejoin: miter"/>
   </g>
   <g id="patch_5">
    <path d="M 62.64 97.92 
C 65.313247 97.92 67.877365 96.857908 69.767636 94.967636 
C 71.657908 93.077365 72.72 90.513247 72.72 87.84 
C 72.72 85.166753 71.657908 82.602635 69.767636 80.712364 
C 67.877365 78.822092 65.313247 77.76 62.64 77.76 
C 59.966753 77.76 57.402635 78.822092 55.512364 80.712364 
C 53.622092 82.602635 52.56 85.166753 52.56 87.84 
C 52.56 90.513247 53.622092 93.077365 55.512364 94.967636 
C 57.402635 96.857908 59.966753 97.92 62.64 97.92 
z
" clip-path="url(#pcab0275d25)" style="fill: #2e3436"/>
   </g>
   <g id="patch_6">
    <path d="M 62.64 80.28 
L 59.112 85.32 
L 61.632 85.32 
L 61.632 92.88 
L 63.648 92.88 
L 63.648 85.32 
L 66.168 85.32 
z
" clip-path="url(#pcab0275d25)" style="fill: #48a9a6"/>
   </g>
   <g id="line2d_1">
    <path d="M 60.12 37.44 
L 65.16 37.44 
" clip-path="url(#pcab0275d25)" style="fill: none; stroke: #2e3436; stroke-width: 2; stroke-linecap: square"/>
   </g>
   <g id="line2d_2">
    <path d="M 62.64 39.96 
L 62.64 34.92 
" clip-path="url(#pcab0275d25)" style="fill: none; stroke: #2e3436; stroke-width: 2; stroke-linecap: square"/>
   </g>
  </g>
 </g>
 <defs>
  <clipPath id="pcab0275d25">
   <rect x="7.2" y="7.2" width="110.88" height="110.88"/>
  </clipPath>
 </defs>
</svg>
